<svg xmlns="http://www.w3.org/2000/svg" version="1.2" overflow="visible" preserveAspectRatio="none" viewBox="0 0 24 24" width="76" height="76"><g><defs> </defs> <rect display="none" fill="#FFA400" width="24" height="24" style="fill: rgb(0, 0, 0);" vector-effect="non-scaling-stroke"/> <rect id="_x3C_Slice_x3E__109_" display="none" fill="none" width="24" height="24" style="fill: rgb(0, 0, 0);" vector-effect="non-scaling-stroke"/> <path fill-rule="evenodd" clip-rule="evenodd" d="M18,12c0-1.664-1.017-3.088-2.462-3.691l-0.769,1.846 C15.492,10.456,16,11.168,16,12s-0.508,1.544-1.23,1.846l0.769,1.846C16.983,15.089,18,13.664,18,12z M17.077,4.615l-0.77,1.848 C18.476,7.367,20,9.504,20,12c0,2.496-1.524,4.633-3.692,5.537l0.77,1.848C19.968,18.179,22,15.328,22,12 C22,8.672,19.968,5.821,17.077,4.615z M2,7v10h4l7,7V0L6,7H2z" style="fill: rgb(0, 0, 0);" vector-effect="non-scaling-stroke"/> </g></svg>