<svg xmlns="http://www.w3.org/2000/svg" version="1.2" overflow="visible" preserveAspectRatio="none" viewBox="0 0 24 24" width="76" height="76"><g><defs> </defs> <rect display="none" fill="#FFA400" width="24" height="24" style="fill: rgb(0, 0, 0);" vector-effect="non-scaling-stroke"/> <rect id="_x3C_Slice_x3E__109_" display="none" fill="none" width="24" height="24" style="fill: rgb(0, 0, 0);" vector-effect="non-scaling-stroke"/> <path fill-rule="evenodd" clip-rule="evenodd" d="M7,4v15.25C6.544,19.094,6.039,19,5.5,19C3.567,19,2,20.119,2,21.5 S3.567,24,5.5,24C7.434,24,9,22.881,9,21.5c0-0.171-0.024-0.339-0.07-0.5H9V8.429l10-2.857V16.25C18.544,16.095,18.039,16,17.5,16 c-1.933,0-3.5,1.119-3.5,2.5s1.567,2.5,3.5,2.5s3.5-1.119,3.5-2.5c0-0.16-0.025-0.315-0.066-0.467L21,18V0L7,4z" style="fill: rgb(0, 0, 0);" vector-effect="non-scaling-stroke"/> </g></svg>